<svg width="14" height="14" viewBox="0 0 14 14" fill="none" xmlns="http://www.w3.org/2000/svg">
<path d="M7.11405 4.66637L7.43804 5.42419C7.46001 5.49009 7.52042 5.52853 7.58082 5.53402L8.40454 5.6109C8.58027 5.62737 8.64616 5.84154 8.51986 5.95686L7.89933 6.50052C7.8499 6.54445 7.82794 6.61035 7.84441 6.67075L8.02563 7.478C8.06407 7.64823 7.88285 7.78003 7.72909 7.69216L7.02069 7.26932C6.96578 7.23637 6.89439 7.23637 6.83947 7.26932L6.13107 7.69216C5.98281 7.78003 5.7961 7.64823 5.83454 7.478L6.01575 6.67075C6.03223 6.61035 6.01026 6.54445 5.96084 6.50052L5.3403 5.95686C5.20851 5.84154 5.2799 5.62737 5.45562 5.6109L6.27934 5.53402C6.34524 5.52853 6.40016 5.49009 6.42761 5.42968L6.75161 4.67186C6.81751 4.50712 7.04266 4.50712 7.11405 4.66637Z" stroke="#F0C932" stroke-width="0.549146" stroke-miterlimit="10" stroke-linecap="round" stroke-linejoin="round"/>
<path d="M10.6655 6.27243C10.6797 4.21009 9.01938 2.52673 6.95704 2.51254C4.8947 2.49834 3.21134 4.1587 3.19715 6.22103C3.18295 8.28337 4.8433 9.96674 6.90564 9.98093C8.96798 9.99512 10.6513 8.33477 10.6655 6.27243Z" stroke="#F0C932" stroke-width="0.549146" stroke-miterlimit="10" stroke-linecap="round" stroke-linejoin="round"/>
<path d="M6.42208 9.94366L5.49402 12.2775L4.31885 10.9321L2.5451 11.0969L3.72028 8.15344" stroke="#F0C932" stroke-width="0.549146" stroke-miterlimit="10" stroke-linecap="round" stroke-linejoin="round"/>
<path d="M7.43256 9.94366L8.3661 12.2775L9.53579 10.9321L11.315 11.0969L10.1344 8.15344" stroke="#F0C932" stroke-width="0.549146" stroke-miterlimit="10" stroke-linecap="round" stroke-linejoin="round"/>
</svg>
