<svg width="20" height="20" viewBox="0 0 9 9" fill="none" xmlns="http://www.w3.org/2000/svg">
<path d="M4.18263 0.422713C4.24427 0.232988 4.51268 0.232988 4.57433 0.422714L5.44186 3.09271C5.46943 3.17756 5.5485 3.235 5.63771 3.235H8.44511C8.6446 3.235 8.72754 3.49028 8.56615 3.60753L6.29492 5.25768C6.22275 5.31012 6.19254 5.40307 6.22011 5.48792L7.08765 8.15791C7.14929 8.34764 6.93214 8.50541 6.77075 8.38815L4.49952 6.738C4.42734 6.68556 4.32961 6.68556 4.25743 6.738L1.9862 8.38815C1.82481 8.50541 1.60766 8.34764 1.66931 8.15791L2.53684 5.48792C2.56441 5.40307 2.53421 5.31012 2.46203 5.25768L0.190799 3.60753C0.0294093 3.49028 0.112353 3.235 0.311842 3.235H3.11924C3.20846 3.235 3.28752 3.17756 3.31509 3.09271L4.18263 0.422713Z" fill="#F1CC4A"/>
</svg>
